<?xml version="1.0" encoding="UTF-8"?>
<svg id="TEXTS" xmlns="http://www.w3.org/2000/svg" viewBox="0 0 1153.66 1080">
  <polygon points="64.58 1054.63 64.38 1056.43 64.02 1057.9 63.3 1058.82 62.39 1058.98 23.58 1058.98 21.03 1058.06 19.76 1054.63 19.76 982.49 21.03 979.02 23.58 978.1 62.03 978.1 62.95 978.3 63.66 979.18 64.02 980.45 64.22 982.65 64.02 984.68 63.66 985.95 62.95 986.67 62.03 987.03 30.32 987.03 30.32 1012.52 57.49 1012.52 58.56 1012.72 59.12 1013.44 59.48 1014.91 59.64 1017.11 59.48 1018.9 59.12 1020.17 58.56 1020.93 57.49 1021.09 30.32 1021.09 30.32 1050.05 62.39 1050.05 63.3 1050.25 64.02 1051.17 64.38 1052.44 64.58 1054.63 64.58 1054.63"></polygon>
  <polygon points="123.98 1052.24 123.98 1056.43 123.58 1057.7 122.86 1058.62 121.95 1058.98 86.05 1058.98 83.34 1058.06 82.07 1054.63 82.07 979.74 82.43 978.82 83.14 978.3 84.98 977.9 87.53 977.74 90.08 977.9 91.71 978.3 92.63 978.82 92.83 979.74 92.83 1049.69 121.95 1049.69 122.86 1050.05 123.58 1050.77 123.98 1052.24 123.98 1052.24"></polygon>
  <polygon points="146.57 978.82 146.57 1058.26 145.45 1058.82 144.02 1059.18 141.27 1059.34 138.72 1059.18 137.09 1058.82 136.17 1058.26 135.97 1057.34 135.97 979.74 136.17 978.82 137.25 978.3 138.72 977.9 141.27 977.74 144.02 977.9 145.45 978.3 146.57 978.82 146.57 978.82"></polygon>
  <polygon points="218.88 982.65 218.68 984.68 218.32 986.11 217.6 987.03 216.69 987.23 193.94 987.23 193.94 1057.34 193.74 1058.26 192.82 1058.82 191.19 1059.18 188.64 1059.34 185.89 1059.18 184.46 1058.82 183.34 1058.26 183.34 987.23 160.59 987.23 159.48 987.03 158.96 986.11 158.56 984.68 158.4 982.65 158.56 980.65 158.96 979.18 159.48 978.3 160.59 978.1 216.69 978.1 217.6 978.3 218.32 979.18 218.68 980.65 218.88 982.65 218.88 982.65"></polygon>
  <polygon points="275.53 1054.63 275.33 1056.43 274.97 1057.9 274.26 1058.82 273.34 1058.98 234.54 1058.98 231.83 1058.06 230.55 1054.63 230.55 982.49 231.83 979.02 234.54 978.1 272.98 978.1 273.9 978.3 274.61 979.18 274.97 980.45 275.17 982.65 274.97 984.68 274.61 985.95 273.9 986.67 272.98 987.03 241.27 987.03 241.27 1012.52 268.44 1012.52 269.35 1012.72 270.07 1013.44 270.43 1014.91 270.63 1017.11 270.43 1018.9 270.07 1020.17 269.35 1020.93 268.44 1021.09 241.27 1021.09 241.27 1050.05 273.34 1050.05 274.26 1050.25 274.97 1051.17 275.33 1052.44 275.53 1054.63 275.53 1054.63"></polygon>
  <path d="M333.66,1029.3l14.02-40.44,14.18,40.44h-28.21ZM382.66,1055.15l-27.17-75.06-.72-1.27-1.27-.52-2.19-.56h-6.17l-2.19.56-1.12.52-.72,1.27-27.13,75.06-.56,2.19.56,1.28,1.43.56,3.11.16,2.75-.16,1.83-.36.72-.76.56-.88,6.53-19.52h33.7l6.93,19.88.72.92.72.52,1.83.2,3.11.16,3.11-.16,1.63-.56.52-1.28-.52-2.19h0Z"></path>
  <path d="M424.53,1013.08l-7.25,1.28h-10.6v-27.33h9.12l5.3.2,3.43.72,1.11.16,6.02,4.38.36.56,1.63,7.45-.72,5.5-3.11,4.34-5.3,2.75h0ZM449.71,1055.91l-1.12-3.11-7.09-17.69-2.75-5.65-2.55-4.19-3.11-3.26-3.62-2.35,6.57-2.95,4.7-4.35,3.31-5.65,1.08-7.29-1.08-7.65-3.82-6.22-5.86-4.34-.88-.36-7.69-2.19-3.43-.36-5.1-.2h-17.33l-2.55.92-1.27,3.47v74.86l.2.92.92.56,1.63.36,2.55.16,2.55-.16,1.63-.36.92-.56.16-.92v-34.42h7.29l6.21,1.08,4.54,3.11,3.47,4.74,2.75,5.81,7.25,19.13.76,1.27.92.76,1.63.36,2.71.16,3.11-.16,1.63-.2.92-.72v-.92l-.16-1.43h0Z"></path>
  <polygon points="516.2 982.65 516 984.68 515.8 986.11 515.09 987.03 514.01 987.23 491.22 987.23 491.22 1058.26 490.15 1058.82 488.67 1059.18 485.92 1059.34 483.37 1059.18 481.74 1058.82 480.82 1058.26 480.66 1057.34 480.66 987.23 457.88 987.23 456.96 987.03 456.24 986.11 455.88 984.68 455.68 982.65 455.88 980.65 456.24 979.18 456.96 978.3 457.88 978.1 514.01 978.1 515.09 978.3 515.8 979.18 516 980.65 516.2 982.65 516.2 982.65"></polygon>
  <polygon points="571.38 1035.47 571.38 1036.39 570.1 1044.24 569.39 1046.43 564.8 1052.8 563.53 1053.88 556.8 1057.9 554.61 1058.62 547.16 1060.09 543.89 1060.25 536.4 1059.53 530.02 1057.7 525.48 1055.91 522.93 1053.88 522.02 1051.89 521.66 1048.98 521.66 1046.79 522.18 1045.15 522.73 1044.4 523.65 1044.24 526.2 1045.31 530.02 1047.5 536.24 1049.89 543.89 1050.97 544.25 1050.97 550.78 1050.05 555.88 1047.34 558.99 1043.12 560.1 1037.5 558.43 1031.65 554.45 1027.3 548.59 1024 541.86 1020.93 535.12 1017.27 529.31 1012.72 525.28 1006.51 523.65 999.06 523.65 998.14 524.93 990.49 525.48 989.02 530.02 982.84 530.58 982.49 537.12 978.66 538.39 978.3 546.04 976.83 548.07 976.83 553.53 977.39 558.63 978.66 563.01 980.29 565.56 981.93 566.28 982.84 566.48 983.76 566.84 985.04 566.84 989.02 566.28 990.49 565.92 991.21 565 991.57 563.01 990.69 559.35 988.66 554.25 986.67 547.71 985.95 541.86 986.67 537.87 989.22 535.32 992.68 534.57 997.07 536.04 1002.88 540.42 1007.27 546.24 1010.73 552.81 1013.8 559.71 1017.27 565.56 1021.81 569.74 1028.02 571.38 1035.47 571.38 1035.47"></polygon>
  <path d="M653.73,1047.14l-4.18,2.2-4.74,1.43-4.94.56-7.45-1.08-5.3-3.11-3.27-4.54-1.08-6.01.52-4.03,2.03-4.18,3.27-3.82,5.26-4.03,5.1,5.86.4.36,5.26,5.81.76.56,5.62,5.46.56.72,5.82,5.3-3.62,2.54h0ZM630.78,989.22l2.19-3.27,3.83-2.39,5.46-.72,5.26.72,3.67,1.99,2.19,2.95.52,3.47-.88,4.34-2.75,3.82-4.9,4.39-.92.55-6.77,4.19-3.27-4.94-2.35-4.19-1.47-3.62-.56-3.47.76-3.83h0ZM686.51,1052.24l-.36-.91-2.19-.16-1.47-.4-2.35-1.43-3.66-2.39-4.9-3.63,3.27-5.66,2.55-6.01,1.83-6.54.56-6.93v-1.63l-.36-1.28-.92-.71-1.63-.2h-4.74l-1.63.55-.76.52v3.47l-.52,4.94-1.11,4.9-1.63,4.58-2.35,3.83-5.5-5.3-5.62-5.46-5.3-5.46-4.54-5.5,3.62-1.99,6.22-4.02,1.08-.52,5.66-5.1,3.83-6.02,1.08-6.57-1.28-7.09-3.98-5.3-6.57-3.27-1.63-.56-8.01-.72-3.82.2-7.13,1.43-1.08.36-6.38,3.82-4.18,6.37-1.47,7.49.56,4.38,1.63,4.34,3.11,5.3,3.98,6.02-1.43,1.07-6.22,4.59-5.26,5.45-2.95,6.02-.88,6.53.88,6.58,2.55,5.65,4.02,4.35,5.3,3.3,6.53,1.99,7.65.72,7.85-.91,6.73-2,6.21-2.9,5.46-4.03,6.17,4.74,4.74,2.91,3.47,1.67,2.75.36,2.55-.36,1.43-.55.56-.72.2-1.28.16-2.55-.36-2.39h0Z"></path>
  <polygon points="785.99 1047.5 785.8 1049.34 785.6 1050.61 785.24 1051.69 784.32 1052.6 781.61 1054.63 776.67 1057.18 769.94 1059.18 762.29 1060.09 761.57 1060.09 753.57 1059.18 747.35 1057.34 740.62 1053.52 736.43 1049.69 732.41 1043.52 729.7 1036.95 727.87 1029.85 727.31 1021.81 727.31 1019.66 727.67 1011.45 729.14 1003.96 729.86 1001.61 732.97 994.32 736.99 988.3 742.81 983 748.27 980.1 755.56 977.74 762.85 977.03 769.58 977.74 775.8 979.58 780.7 981.73 783.8 983.92 784.88 985.19 785.24 986.11 785.44 987.59 785.44 991.77 785.08 993.04 784.32 993.96 783.6 994.32 781.25 993.04 777.07 990.49 771.05 987.75 763.57 986.47 762.65 986.47 754.84 987.75 752.81 988.5 746.63 993.24 745.16 995.04 741.53 1001.41 740.26 1005.23 738.98 1012.52 738.63 1018.9 739.14 1027.11 740.26 1032.56 743.37 1039.85 745 1042.4 750.82 1047.5 752.65 1048.42 759.94 1050.41 762.85 1050.61 770.7 1049.5 771.21 1049.34 777.59 1046.79 781.61 1044.04 784.16 1042.96 784.88 1042.96 785.44 1043.68 785.8 1045.15 785.99 1047.5 785.99 1047.5"></polygon>
  <path d="M828.78,1013.08l-7.45,1.28h-10.6v-27.33h9.12l5.3.2,3.47.72,1.28.16,5.82,4.38.36.56,1.83,7.45-.92,5.5-3.11,4.34-5.1,2.75h0ZM853.76,1055.91l-.92-3.11-7.29-17.69-2.55-5.65-2.55-4.19-3.27-3.26-3.67-2.35,6.57-2.95,4.9-4.35,3.27-5.65.92-7.29-1.08-7.65-3.82-6.22-5.82-4.34-.92-.36-7.49-2.19-3.62-.36-5.1-.2h-17.13l-2.75.92-1.28,3.47v74.86l.2.92.92.56,1.63.36,2.55.16,2.71-.16,1.67-.36.88-.56v-35.34h7.29l6.21,1.08,4.54,3.11,3.47,4.74,2.75,5.81,7.45,19.13.56,1.27.92.76,1.63.36,2.71.16,3.11-.16,1.63-.2.92-.72.2-.92-.36-1.43h0Z"></path>
  <path d="M881.25,1029.3l14.02-40.44h.2l14.02,40.44h-28.25ZM930.25,1055.15l-27.13-75.06-.72-1.27-1.27-.52-2.19-.56h-6.22l-2.19.56-1.08.52-.72,1.27-27.17,75.06-.36,2.19.36,1.28,1.47.56,3.11.16,2.71-.16,1.83-.36.72-.76.72-.88,6.57-19.52h33.51l7.13,19.88.56.92.72.52,1.83.2,3.07.16,3.11-.16,1.63-.56.56-1.28-.56-2.19h0Z"></path>
  <polygon points="986.19 982.65 985.99 984.68 985.63 986.11 984.91 987.03 984 987.23 954.32 987.23 954.32 1014.72 982.36 1014.72 983.44 1014.91 984 1015.63 984.36 1017.11 984.56 1019.1 984.36 1021.09 984 1022.56 983.44 1023.48 982.36 1023.64 954.32 1023.64 954.32 1058.26 953.2 1058.82 951.77 1059.18 949.02 1059.34 946.47 1059.18 944.84 1058.82 943.92 1058.26 943.76 1057.34 943.76 982.49 945.03 979.02 947.74 978.1 984 978.1 984.91 978.3 985.63 979.18 985.99 980.65 986.19 982.65 986.19 982.65"></polygon>
  <polygon points="1053.24 982.65 1053.04 984.68 1052.68 986.11 1051.96 987.03 1051.04 987.23 1028.26 987.23 1028.26 1057.34 1028.1 1058.26 1027.18 1058.82 1025.55 1059.18 1022.8 1059.34 1020.25 1059.18 1018.62 1058.82 1017.7 1058.26 1017.5 1057.34 1017.5 987.23 994.75 987.23 993.84 987.03 993.12 986.11 992.92 984.68 992.56 982.65 992.92 980.65 993.12 979.18 993.84 978.3 994.75 978.1 1051.04 978.1 1051.96 978.3 1052.68 979.18 1053.04 980.65 1053.24 982.65 1053.24 982.65"></polygon>
  <polygon points="1108.25 1035.47 1108.25 1036.39 1107.14 1044.24 1106.22 1046.43 1101.68 1052.8 1100.41 1053.88 1093.83 1057.9 1091.68 1058.62 1084.19 1060.09 1080.72 1060.25 1073.28 1059.53 1067.06 1057.7 1062.52 1055.91 1059.97 1053.88 1059.05 1051.89 1058.5 1048.98 1058.69 1046.79 1059.05 1045.15 1059.77 1044.4 1060.53 1044.24 1063.08 1045.31 1067.06 1047.5 1073.28 1049.89 1080.72 1050.97 1081.28 1050.97 1087.66 1050.05 1092.76 1047.34 1095.86 1043.12 1097.14 1037.5 1095.51 1031.65 1091.28 1027.3 1085.66 1024 1078.73 1020.93 1072 1017.27 1066.14 1012.72 1062.16 1006.51 1060.53 999.06 1060.53 998.14 1061.8 990.49 1062.32 989.02 1066.9 982.84 1067.42 982.49 1074.19 978.66 1075.27 978.3 1082.92 976.83 1085.11 976.83 1090.57 977.39 1095.66 978.66 1099.85 980.29 1102.4 981.93 1103.16 982.84 1103.51 983.76 1103.67 985.04 1103.67 989.02 1103.31 990.49 1102.96 991.21 1102.04 991.57 1099.85 990.69 1096.22 988.66 1091.28 986.67 1084.75 985.95 1078.89 986.67 1074.71 989.22 1072.36 992.68 1071.44 997.07 1073.08 1002.88 1077.1 1007.27 1083.12 1010.73 1089.85 1013.8 1096.58 1017.27 1102.4 1021.81 1106.78 1028.02 1108.25 1035.47 1108.25 1035.47"></polygon>
  <path d="M997.13,458.24l-16.44-10.05-16.61-9.31-16.99-8.95-17.35-8.21-17.54-7.67-17.71-6.94-18.08-6.39-18.27-5.85-18.45-5.12-18.62-4.38-18.82-3.84-5.13-.84c80.11-1.84,159.38,26.99,219.54,80.21l-4.81,7.14-14.71-9.8h0ZM674.02,569.85l2.07-16.52,2.9-17.25,3.63-17.07,4.36-16.9,4.89-16.69,5.81-16.54,6.35-16.33,7.08-15.97,7.8-15.61,8.53-15.26,9.08-14.89,9.62-14.52,10.35-14.16,10.89-13.61.95-1.08-3.1,5.06-10.77,18.99-10.22,19.54-9.5,19.91-8.58,20.26-8.03,20.45-7.3,20.81-6.57,21-5.84,21.18-5.11,21.36-4.38,21.56-3.12,19.55-11.78-7.3h0ZM748.69,348.44l-13.02,2.37v-15.27s-.55-17-.55-17l-1.28-17.01-2.01-16.82-2.74-16.81-3.3-16.65-4.2-16.61-4.58-16.29-5.48-16.08-6.04-15.91-6.74-15.48c-.05-.13-.14-.23-.23-.33-.42-1.26-.05-2.67,1.01-3.52,1.03-.82,2.43-.89,3.56-.26,31.59,55.27,47.34,118.05,45.6,181.67h0ZM1129.08,458.1v-.02c-12.16-10.82-13.74-29.06-3.77-41.82.29-.13.55-.33.7-.64,5.57-11.37,1.88-25.31-8.6-32.42-10.31-7.01-24.33-5.42-32.89,3.59l-.08.03c-2.11,1.36-4.77,1.43-6.96.17-2.17-1.26-3.45-3.6-3.32-6.11.12-2.38,1.5-4.45,3.59-5.54.53.05,1.07.11,1.6.11,4.71,0,9.25-2.15,12.21-5.9,3.42-4.32,4.3-10.19,2.28-15.33-.14-.37-.42-.65-.76-.79-1.86-2.47-4.01-4.7-6.46-6.59l-.09-.2c-11.13-10.58-25.01-17.31-40.19-19.53-.2-.14-.43-.25-.69-.27-2.09-.16-3.88-1.62-4.46-3.63-.56-1.96.14-4.08,1.74-5.34h.03c4.16-2.93,6.05-8.18,4.71-13.08-1.24-4.57-5.08-7.95-9.7-8.72-.19-.17-.4-.31-.66-.37-12.66-2.7-23.41-11.35-28.74-23.14l-.04-.05c-4.53-10.54-13.93-18.3-25-20.94l29.62-24.74c.16-.13.18-.33.27-.5,3.19-2.1,5.19-5.63,5.17-9.49-.02-4.13-2.28-7.93-5.91-9.91-3.62-1.98-8.04-1.84-11.53.37-.34.22-.56.56-.63.93l-21.96,15.21c-.13.04-.27,0-.38.09-1.45,1.01-3.34,1.04-4.81.09-1.48-.96-2.22-2.69-1.89-4.42.03-.14.01-.28,0-.42,1.21-7.1,6.91-12.42,14.07-13.16.1.02.2.06.31.06h.05c3.6,0,6.92-1.95,8.67-5.11,1.76-3.17,1.64-7.04-.3-10.1-1.8-2.84-4.91-4.47-8.24-4.52-.26-.16-.57-.25-.92-.21-8.39,1.08-16.33-4.46-18.3-12.66l.02-.2c-1.78-20.62-15.42-38.71-34.76-46.1l-.26-.04c-6.72-3.3-11.4-9.87-12.32-17.29.04-.2.04-.41-.02-.62-1.23-4.51-5.18-7.66-9.85-7.84-4.63-.22-8.86,2.65-10.42,7.05l-.02.16-4.87,11.27-1.44-9.61c-.04-.24-.14-.44-.27-.63-.94-3.99-4.32-7.04-8.44-7.46h-.15c-6.75-.8-11.96-6.26-12.42-13.06-.46-6.84,4.02-12.98,10.66-14.65,3.17-.48,5.7-2.98,6.18-6.16.48-3.24-1.27-6.44-4.25-7.79l-.18-.04c-2.74-.9-5.32-2.2-7.79-3.68,4.65-2.11,8.2-6.17,9.54-11.22.07-.26.04-.52-.03-.76.14-1.79-.37-3.58-1.49-5-1.2-1.52-2.97-2.47-4.89-2.67-.09-.02-.17-.07-.27-.07-9.03-.68-18.22.74-26.61,4.1l-.1.07h0c-2.82,1.47-6.27.67-8.24-1.77-.07-.19-.08-.39-.23-.54-5.29-5.21-13.65-5.64-19.45-.99-.3.24-.46.58-.51.92l-11.59,13.49c-.09.07-.21.06-.28.15-2.78,3.47-7.23,5.17-11.63,4.45-4.13-.69-7.56-3.48-9.22-7.29,0-.2-.03-.4-.11-.6l-3.28-7.65c-.11-.25-.29-.43-.49-.58-3.5-8.08-11.03-13.71-19.81-14.71-9.01-1.01-17.77,2.94-22.97,10.32l-.04.09c-2.65,4.21-7.99,5.85-12.55,3.9l-.11-.11c-5.32-3.38-9.13-8.84-10.45-15-.06-.3-.23-.54-.44-.74-1.61-3.33-5.29-5.07-8.89-4.2-.16-.02-.33-.02-.5.02-11.53,2.76-22.23,8.47-30.95,16.51-.09.08-.08.2-.14.3l-38.06,41.5-.04.1-.17.11c-4.22,5.91-3.74,14,1.07,19.4.08.12.08.28.19.38.83.71,1.14,1.84.8,2.87-.35,1.04-1.27,1.75-2.36,1.82h-.03c-3.59-.8-7.35-.12-10.39,1.99-3.18,2.21-5.22,5.69-5.61,9.55-.02.24.03.47.12.68v719.73c0,.79.64,1.44,1.43,1.44h141.18c.53,0,1.01-.29,1.26-.75.25-.46.23-1.02-.05-1.46l-7.42-11.58-6.71-12.16-6.16-12.31-5.44-12.68-4.72-13.06-4.17-13.23-3.45-13.41-2.72-13.4-2-13.77-1.27-13.8-1.27-21.79-.18-21.83.36-21.8,1.27-21.8,2.18-21.64,2.73-21.68c.03-.23-.01-.45-.09-.66,4.67-37.88,35.6-67.57,73.77-70.69.24-.02.45-.11.63-.23,25.51-.49,50.16,6.6,71.52,20.47.12.19.28.37.49.49,2.85,1.57,4.43,4.78,3.94,7.99-.49,3.21-2.97,5.8-6.15,6.43-.25.05-.46.18-.64.33l-25.32,5.31c-.13.03-.24.09-.36.15l-.11.04c-4.43,2.46-6.83,7.48-5.95,12.48.88,5,4.84,8.9,9.85,9.7h.06c6.23,1.43,12.49,2.12,18.72,2.12,30.21,0,59.08-16.29,74.22-43.37l.04-.13.14-.2c.85-2.59,3.15-4.43,5.86-4.69,2.62-.25,5.1,1.03,6.46,3.24l.03.19c5.34,13.9,14.67,25.66,27,34.01.25.17.53.24.8.24h.03c3.82,2.36,8.17,3.63,12.59,3.63,2.12,0,4.26-.28,6.35-.86,6.61-1.82,12.09-6.38,15.12-12.52.12-.13.27-.24.34-.42,2.26-5.77,3.51-11.83,3.73-18.02l.04-.25c-.03-1.97,1.42-3.61,3.37-3.81,1.85-.17,3.37.93,3.91,2.59-.02.15-.04.31-.02.47,1.43,8.48,7.77,15.21,16.15,17.15.11.03.21.04.32.04h.02c3.6,1.19,7.32,1.79,11.01,1.79,7.55,0,15.01-2.47,21.19-7.21,9.16-7.03,14.19-18.05,13.56-29.55.1-.22.16-.46.13-.72-1.11-9.15,1.85-18.28,8.13-25.04,6.28-6.76,15.14-10.38,24.38-9.95.4.04.75-.09,1.01-.32,3.45-.86,6.11-3.74,6.61-7.32.51-3.71-1.43-7.34-4.74-9.03h0Z"></path>
  <path d="M142.94,408.44c0,.8.64,1.43,1.43,1.43h431.02v116.45H144.38c-.8,0-1.43.68-1.43,1.43v185.45c0,.8.64,1.43,1.43,1.43h431.02v117.73H33.03V101.83h542.38v122.27H144.38c-.8,0-1.43.68-1.43,1.43v182.9h0Z"></path>
</svg>